<svg version="1.1" xmlns="http://www.w3.org/2000/svg" xmlns:xlink="http://www.w3.org/1999/xlink" width="48" height="48" viewBox="0,0,256,256"><g fill="none" fill-rule="nonzero" stroke="#fce619" stroke-width="1.25" stroke-linecap="round" stroke-linejoin="round" stroke-miterlimit="10" stroke-dasharray="" stroke-dashoffset="0" font-family="none" font-weight="none" font-size="none" text-anchor="none" style="mix-blend-mode: normal"><g transform="translate(0,-2.58861) scale(10.66667,10.66667)"><path d="M9,11c0,1.65685 1.34315,3 3,3c1.65685,0 3,-1.34315 3,-3c0,-1.65685 -1.34315,-3 -3,-3c-1.65685,0 -3,1.34315 -3,3"></path><path d="M17.657,16.657l-4.243,4.243c-0.78089,0.7801 -2.04611,0.7801 -2.827,0l-4.244,-4.243c-3.12408,-3.12424 -3.12399,-8.18948 0.00019,-11.31361c3.12418,-3.12413 8.18943,-3.12413 11.31361,0c3.12418,3.12413 3.12427,8.18937 0.00019,11.31361z"></path></g></g></svg>